<svg width="18" height="19" viewBox="0 0 18 19" fill="none" xmlns="http://www.w3.org/2000/svg">
<path d="M17.4875 1.00914L17.0775 4.00214C16.0115 3.92014 15.2325 4.13881 14.7405 4.65814C14.2485 5.17747 13.9478 5.87447 13.8385 6.74914C13.7292 7.62381 13.7018 8.56681 13.7565 9.57814H17.4875V18.2291H10.4765V7.93814C10.4765 5.42347 11.1052 3.53747 12.3625 2.28014C13.6472 1.02281 15.3555 0.59914 17.4875 1.00914ZM7.0735 1.00914L6.6635 4.00214C5.5975 3.92014 4.8185 4.13881 4.3265 4.65814C3.8345 5.17747 3.53383 5.87447 3.4245 6.74914C3.31517 7.62381 3.28783 8.56681 3.3425 9.57814H7.0735V18.2291H0.0625V7.93814C0.0625 5.42347 0.691167 3.53747 1.9485 2.28014C3.23317 1.02281 4.9415 0.59914 7.0735 1.00914Z" fill="#FDFDFC"/>
</svg>
