<svg width="84" height="84" viewBox="0 0 84 84" fill="none" xmlns="http://www.w3.org/2000/svg">
<g clip-path="url(#clip0_40_1267)">
<circle cx="42" cy="42" r="42" fill="#E43D12"/>
<path d="M59.4522 22.5918H39.4574C38.8544 22.5918 38.3655 23.0807 38.3655 23.6837V29.5893C39.7041 30.16 40.83 31.1981 41.4832 32.5429L43.1207 35.9143L48.5612 35.5617C50.1864 35.4563 51.6356 36.4744 52.1305 37.9617C52.2458 38.0104 52.3589 38.0628 52.4691 38.1193V36.1013H59.4522C60.0552 36.1013 60.5442 35.6124 60.5442 35.0093V23.6837C60.5442 23.0807 60.0553 22.5918 59.4522 22.5918ZM50.6048 29.9363C50.6558 29.6665 50.5771 29.3769 50.3683 29.1679C50.0326 28.8323 49.4884 28.8323 49.1527 29.1679C48.8171 29.5036 48.8171 30.0477 49.1527 30.3835C49.3617 30.5924 49.6513 30.6711 49.9212 30.62L52.3485 33.0474L47.8422 31.1471C47.6867 31.0815 47.5857 30.9293 47.5857 30.7605V30.3265C47.5857 29.683 47.3301 29.0657 46.875 28.6105L45.7501 27.4857C45.6573 27.3929 45.6573 27.2424 45.7501 27.1495L47.1344 25.7653C47.2272 25.6725 47.3778 25.6725 47.4706 25.7653L48.5954 26.8901C49.0505 27.3452 49.6678 27.6009 50.3114 27.6009H50.7454C50.9141 27.6009 51.0663 27.7019 51.1319 27.8573L53.0321 32.3634L50.6048 29.9363Z" fill="white"/>
<path d="M31.8724 21.5315C29.774 21.5315 28.0728 23.2325 28.0728 25.331C28.0728 27.4411 29.7882 29.1305 31.8724 29.1305C33.9562 29.1305 35.6719 27.4411 35.6719 25.331C35.6719 23.2325 33.9707 21.5315 31.8724 21.5315Z" fill="white"/>
<path d="M42.7097 46.7812H39.0578C39.9752 47.149 40.6252 48.0468 40.6252 49.0941V51.3487C40.6252 52.0289 40.3509 52.6461 39.9073 53.0961L38.7974 60.9609C38.6277 62.164 39.4654 63.2768 40.6683 63.4466C41.8741 63.6163 42.9846 62.7766 43.1541 61.5757L44.8879 49.2884C45.0748 47.9642 44.0449 46.7812 42.7097 46.7812Z" fill="white"/>
<path d="M38.134 48.0713C34.8786 48.0713 34.7727 48.0713 33.3283 48.0713V36.6695C33.3283 35.3422 32.2523 34.2664 30.9251 34.2664H22.4032C21.076 34.2663 20 35.3422 20 36.6695V49.9681C20 51.2954 21.076 52.3713 22.4032 52.3713C23.0292 52.3713 27.4856 52.3713 28.1345 52.3713C28.1345 53.0439 28.1345 57.0869 28.1345 57.7564L21.6499 61.4426C21.1296 61.7383 20.9475 62.3998 21.2433 62.9201C21.5391 63.4403 22.2005 63.6226 22.721 63.3267L28.4056 60.0954V60.9321C28.4056 61.5306 28.8908 62.0157 29.4892 62.0157C30.0876 62.0157 30.5728 61.5306 30.5728 60.9321V60.0954L33.5317 61.7774C33.7614 62.747 34.6321 63.4685 35.6719 63.4685C36.8869 63.4685 37.8718 62.4836 37.8718 61.2686V53.8399H33.472V59.2505L30.8437 57.7565C30.8437 57.0871 30.8437 53.0439 30.8437 52.3714C33.4864 52.3714 31.7389 52.3714 38.134 52.3714C38.6988 52.3714 39.1566 51.9135 39.1566 51.3488V49.0942C39.1567 48.5304 38.6986 48.0713 38.134 48.0713Z" fill="white"/>
<path d="M63.5315 41.8644C61.9879 41.8644 54.5043 41.8644 53.1383 41.8644C53.1767 41.7134 53.1959 41.5622 53.1959 41.4112C53.1959 40.2271 52.0661 39.2699 50.6199 39.0516C50.6052 37.9826 49.7021 37.1794 48.6705 37.2468L42.0975 37.6728L39.9643 33.2806C39.2285 31.7661 37.6654 30.7874 35.9815 30.7874C27.7008 30.7874 27.3375 30.7874 26.9667 30.7874C25.4352 30.7874 24.0845 31.5897 23.312 32.7979H30.9251C33.0602 32.7979 34.7967 34.535 34.7967 36.6695V46.6029H36.7727V44.8013C37.2726 44.8013 59.3223 44.8013 59.5989 44.8013V62.114C59.5989 62.8622 60.2054 63.4685 60.9535 63.4685C61.7016 63.4685 62.3081 62.8621 62.3081 62.114V44.8013H63.5315C64.3425 44.8013 65 44.1438 65 43.3329C65 42.5219 64.3425 41.8644 63.5315 41.8644ZM36.7727 41.8644C36.7727 40.9501 36.7727 36.1525 36.7727 35.1018L39.3377 40.3829C39.6621 41.0509 40.3592 41.4596 41.1054 41.4113L46.8039 41.0419C46.7486 41.3108 46.7532 41.5865 46.8239 41.8643C45.5244 41.8644 38.1867 41.8644 36.7727 41.8644Z" fill="white"/>
</g>
<defs>
<clipPath id="clip0_40_1267">
<rect width="84" height="84" fill="white"/>
</clipPath>
</defs>
</svg>